<?xml version="1.0" standalone="no"?>
<!DOCTYPE svg PUBLIC "-//W3C//DTD SVG 20010904//EN"
 "http://www.w3.org/TR/2001/REC-SVG-20010904/DTD/svg10.dtd">
<svg version="1.0" xmlns="http://www.w3.org/2000/svg"
 width="200.000000pt" height="200.000000pt" viewBox="0 0 200.000000 200.000000"
 preserveAspectRatio="xMidYMid meet">
<metadata>
Created by potrace 1.11, written by Peter Selinger 2001-2013
</metadata>
<g transform="translate(0.000000,200.000000) scale(0.100000,-0.100000)"
fill="#000000" stroke="none">
<path d="M1095 1804 c-11 -3 -51 -14 -88 -26 -67 -20 -68 -20 -110 -2 -62 28
-158 25 -222 -8 -59 -31 -95 -67 -124 -125 -20 -40 -24 -43 -62 -43 -38 0 -41
-2 -60 -47 -30 -69 -44 -149 -31 -166 8 -9 9 -31 2 -69 -8 -52 -2 -133 15
-199 4 -17 1 -39 -10 -60 -13 -25 -16 -48 -12 -92 6 -66 25 -99 77 -135 22
-15 41 -41 56 -80 13 -31 41 -83 63 -114 l40 -58 -42 -11 c-23 -6 -80 -29
-127 -51 -101 -48 -191 -132 -234 -219 -52 -104 -133 -94 774 -97 492 -1 797
1 803 7 25 25 -78 191 -151 244 -58 43 -210 117 -240 117 -34 0 -34 16 2 68
19 28 44 74 57 101 19 44 28 53 61 62 47 12 106 63 124 106 29 68 9 150 -47
197 -29 25 -29 25 -29 145 0 110 2 120 19 126 11 3 21 14 23 23 5 23 -15 118
-35 165 -14 33 -20 37 -51 37 -30 0 -39 6 -65 44 -63 92 -180 157 -290 162
-36 2 -75 1 -86 -2z m-197 -81 c79 -49 115 -110 114 -193 0 -66 -21 -117 -63
-159 -43 -43 -90 -61 -163 -61 -120 0 -207 88 -208 212 -2 99 40 165 132 208
53 25 142 21 188 -7z m382 6 c39 -14 73 -36 106 -70 l48 -49 -192 0 c-155 0
-192 3 -192 14 0 7 -11 30 -25 50 -14 20 -25 41 -25 45 0 15 71 29 149 30 52
1 91 -5 131 -20z m-693 -381 c13 -12 23 -26 23 -32 -1 -14 -36 -39 -80 -56
-54 -21 -61 -29 -49 -52 11 -21 4 -68 -10 -68 -20 0 -29 157 -11 204 8 23 15
26 57 26 34 0 53 -6 70 -22z m938 -88 l0 -105 -43 3 c-50 4 -68 -8 -78 -51 -7
-37 -31 -85 -50 -104 -18 -18 -26 -2 -29 56 -1 25 -3 56 -4 68 -1 16 -13 27
-45 41 -24 11 -67 44 -95 73 l-51 54 -30 -32 c-17 -18 -35 -33 -40 -33 -15 0
-69 50 -75 71 -5 14 0 28 16 45 l23 24 250 -2 251 -3 0 -105z m-740 0 c31 0
76 5 100 11 l43 11 42 -46 c50 -54 95 -68 136 -41 26 17 27 16 63 -18 20 -19
51 -42 69 -51 29 -15 32 -21 32 -62 0 -98 51 -149 108 -107 15 10 41 47 57 81
33 68 47 74 110 48 67 -28 93 -111 55 -173 -32 -54 -60 -65 -182 -73 -14 0 -8
-38 7 -44 46 -17 -97 -211 -204 -274 -53 -31 -161 -62 -216 -62 -113 0 -242
58 -324 146 -57 61 -126 178 -115 195 12 19 69 9 94 -17 21 -22 30 -25 67 -21
48 5 93 30 93 52 0 19 -20 19 -56 0 -39 -20 -57 -19 -80 6 -18 20 -18 22 9 97
39 110 35 205 -8 188 -12 -4 -15 -13 -11 -30 3 -14 2 -26 -4 -28 -21 -7 -210
4 -210 13 0 5 18 20 40 34 27 17 40 32 40 48 0 45 13 68 49 86 20 11 44 28 54
39 17 19 21 19 52 6 19 -8 60 -14 90 -14z m-266 -285 c17 -29 26 -35 55 -35
33 0 67 27 78 62 2 6 9 8 16 4 8 -5 5 -25 -14 -74 -14 -37 -28 -70 -32 -74 -4
-4 -36 -3 -72 2 -50 7 -70 15 -86 34 -27 31 -41 96 -22 107 28 18 56 9 77 -26z
m183 -458 l27 -22 -30 -127 -30 -127 -205 -1 c-139 0 -204 3 -204 10 0 20 38
85 72 121 62 66 120 100 248 145 82 29 89 29 122 1z m725 -2 c99 -31 186 -82
241 -142 47 -50 87 -119 74 -127 -13 -8 -570 -7 -575 1 -3 5 1 35 9 68 36 148
33 143 93 184 31 21 61 39 68 40 7 1 47 -10 90 -24z m-595 -75 l37 -14 -30
-38 c-35 -43 -49 -47 -67 -18 -15 25 -6 93 12 87 6 -2 28 -10 48 -17z m318
-17 c0 -5 -5 -25 -11 -46 -8 -30 -18 -42 -44 -53 -19 -8 -36 -14 -38 -14 -4 0
-26 70 -27 85 0 6 21 15 48 21 60 15 72 16 72 7z m-280 -118 c17 -45 5 -55
-71 -55 -73 0 -79 5 -60 53 6 17 8 17 25 -2 25 -27 37 -26 66 4 29 31 28 31
40 0z m144 -32 c7 -20 4 -23 -23 -23 -36 0 -41 19 -14 50 18 21 24 17 37 -27z
m96 -13 c0 -5 -12 -10 -27 -9 -25 0 -26 1 -8 9 27 12 35 12 35 0z"/>
<path d="M744 1598 c-24 -11 -44 -48 -44 -79 0 -11 14 -34 30 -51 26 -25 36
-29 63 -24 46 9 71 38 71 82 0 63 -63 100 -120 72z"/>
<path d="M821 1097 c-22 -28 -35 -118 -22 -164 24 -86 91 -123 223 -123 97 0
164 22 188 63 41 67 30 222 -15 222 -13 0 -21 -8 -23 -22 -3 -23 -5 -23 -157
-23 l-154 0 2 27 c2 31 -23 43 -42 20z m148 -122 c17 -29 26 -35 54 -35 34 0
58 18 70 53 5 14 16 18 49 15 39 -3 43 -6 46 -32 10 -86 -33 -116 -165 -116
-50 0 -103 4 -117 10 -44 16 -85 108 -59 133 3 4 28 7 54 7 43 0 49 -3 68 -35z"/>
<path d="M945 744 c-32 -42 -78 -64 -135 -64 -34 0 -41 -3 -38 -17 5 -27 77
-29 131 -5 49 22 102 83 93 107 -9 23 -21 18 -51 -21z"/>
<path d="M1325 433 c-9 -8 -15 -33 -15 -59 0 -38 -3 -46 -25 -54 -58 -22 -22
-30 136 -30 124 0 160 3 157 13 -3 6 -21 13 -41 15 l-37 3 0 49 c0 30 -6 54
-15 64 -20 20 -140 20 -160 -1z m52 -67 c4 -28 1 -36 -11 -36 -11 0 -16 10
-16 33 0 59 19 61 27 3z m75 4 c2 -28 0 -40 -9 -40 -14 0 -19 61 -6 73 10 11
11 9 15 -33z"/>
</g>
</svg>
