<?xml version="1.0" encoding="utf-8"?>
<!-- Generator: Adobe Illustrator 14.0.0, SVG Export Plug-In . SVG Version: 6.00 Build 43363)  -->
<!DOCTYPE svg PUBLIC "-//W3C//DTD SVG 1.1//EN" "http://www.w3.org/Graphics/SVG/1.1/DTD/svg11.dtd">
<svg version="1.1" id="Layer_1" xmlns="http://www.w3.org/2000/svg" xmlns:xlink="http://www.w3.org/1999/xlink" x="0px" y="0px"
	 width="576px" height="432px" viewBox="0 0 576 432" enable-background="new 0 0 576 432" xml:space="preserve">
<g display="none">
	<path display="inline" fill="#F37021" d="M206.729,254.059h-2.609V236.09h2.609V254.059z"/>
	<path display="inline" fill="#F37021" d="M216.518,254.059h-2.609V236.09h2.685l8.846,13.601l-0.126-13.601h2.567v17.969h-2.497
		l-9.034-14.008L216.518,254.059z"/>
	<path display="inline" fill="#F37021" d="M239.676,254.059h-2.609V238.53H233.7v-2.44h9.342v2.44h-3.366V254.059z"/>
	<path display="inline" fill="#F37021" d="M258.143,254.059H248.8V236.09h9.342v2.398h-6.733v5.345h6.733v2.356h-6.733v5.387h6.733
		V254.059z"/>
	<path display="inline" fill="#F37021" d="M267.979,254.059h-2.609V236.09h5.19c2.154,0,3.798,0.497,4.933,1.494
		c1.135,0.994,1.703,2.434,1.703,4.317c0,1.463-0.475,2.688-1.424,3.67c-0.95,0.983-2.172,1.513-3.668,1.586l5.092,6.901h-3.257
		l-5.959-8.332V254.059z M267.979,245.432h1.333c1.806,0,3.151-0.292,4.033-0.874c0.883-0.583,1.325-1.472,1.325-2.663
		c0-1.157-0.38-2.008-1.139-2.552c-0.759-0.541-1.959-0.813-3.601-0.813h-1.951V245.432z"/>
	<path display="inline" fill="#F37021" d="M286.313,254.059h-2.609V236.09h2.685l8.846,13.601l-0.126-13.601h2.567v17.969h-2.498
		l-9.034-14.008L286.313,254.059z"/>
	<path display="inline" fill="#F37021" d="M314.185,254.059h-9.343V236.09h9.343v2.398h-6.733v5.345h6.733v2.356h-6.733v5.387h6.733
		V254.059z"/>
	<path display="inline" fill="#F37021" d="M326.041,254.059h-2.608V238.53h-3.367v-2.44h9.343v2.44h-3.367V254.059z"/>
	<path display="inline" fill="#F37021" d="M348.974,254.059h-2.524V236.09h3.881l5.202,13.896l5.202-13.896h3.81v17.969h-2.44
		l0.168-15.6l-5.827,15.6h-1.849l-5.79-15.6L348.974,254.059z"/>
	<path display="inline" fill="#F37021" d="M374.233,248.799l-2.027,5.26h-2.735l7.014-17.969h2.533l7.033,17.969h-2.854l-1.979-5.26
		H374.233z M380.278,246.273l-2.534-6.81l-2.583,6.81H380.278z"/>
	<path display="inline" fill="#F37021" d="M393.668,254.059h-2.609V236.09h5.191c2.153,0,3.798,0.497,4.933,1.494
		c1.135,0.994,1.701,2.434,1.701,4.317c0,1.463-0.475,2.688-1.424,3.67c-0.949,0.983-2.171,1.513-3.668,1.586l5.092,6.901h-3.256
		l-5.96-8.332V254.059z M393.668,245.432h1.334c1.807,0,3.15-0.292,4.033-0.874c0.882-0.583,1.324-1.472,1.324-2.663
		c0-1.157-0.38-2.008-1.139-2.552c-0.759-0.541-1.96-0.813-3.602-0.813h-1.951V245.432z"/>
	<path display="inline" fill="#F37021" d="M412.003,254.059h-2.609V236.09h2.609V254.059z M412.102,245.136l6.78-9.046h3.137
		l-6.977,8.923l6.809,9.046h-3.274L412.102,245.136z"/>
	<path display="inline" fill="#F37021" d="M436.59,254.059h-9.343V236.09h9.343v2.398h-6.733v5.345h6.733v2.356h-6.733v5.387h6.733
		V254.059z"/>
	<path display="inline" fill="#F37021" d="M448.446,254.059h-2.609V238.53h-3.366v-2.44h9.343v2.44h-3.367V254.059z"/>
	<path display="inline" fill="#F37021" d="M460.18,254.059h-2.609V236.09h2.609V254.059z"/>
	<path display="inline" fill="#F37021" d="M469.968,254.059h-2.609V236.09h2.686l8.846,13.601l-0.127-13.601h2.567v17.969h-2.496
		l-9.034-14.008L469.968,254.059z"/>
	<path display="inline" fill="#F37021" d="M494.912,244.969h11.134c-0.124,2.817-1.035,5.101-2.734,6.848
		c-1.699,1.748-3.852,2.621-6.458,2.621c-1.354,0-2.601-0.26-3.743-0.778c-1.143-0.521-2.167-1.291-3.074-2.314
		c-0.767-0.849-1.349-1.815-1.744-2.899c-0.396-1.085-0.595-2.245-0.595-3.481c0-1.263,0.239-2.458,0.719-3.588
		c0.477-1.129,1.178-2.148,2.103-3.056c0.873-0.873,1.851-1.527,2.932-1.96c1.079-0.433,2.278-0.649,3.598-0.649
		c1.822,0,3.421,0.428,4.794,1.281c1.372,0.854,2.409,2.067,3.109,3.643h-3.198c-0.594-0.769-1.303-1.344-2.128-1.733
		c-0.824-0.387-1.745-0.581-2.759-0.581c-0.85,0-1.658,0.16-2.425,0.483c-0.767,0.321-1.448,0.788-2.041,1.399
		c-0.619,0.637-1.103,1.376-1.448,2.218c-0.346,0.841-0.52,1.701-0.52,2.574c0,0.941,0.157,1.833,0.47,2.67
		c0.313,0.839,0.762,1.563,1.347,2.175c0.618,0.645,1.33,1.144,2.137,1.498c0.808,0.355,1.631,0.533,2.472,0.533
		c1.366,0,2.573-0.369,3.619-1.107c1.045-0.736,1.905-1.827,2.581-3.27h-8.146V244.969z"/>
</g>
<g>
	<path fill="#FFFFFF" d="M475.528,160.328c-9.1,27.907-37.57,60.104-78.832,89.594c-13.783,9.86-28.98,19.412-45.38,28.4
		c-11.912,6.531-24.447,12.772-37.518,18.613c-63.537,28.39-125.64,41.15-170.648,37.965c47.481,12.089,114.41,4.028,181.05-25.742
		c11.963-5.345,23.387-11.181,34.244-17.373l15.956,30.104h59.151l-30.741-60.016C442.572,230.229,468.845,193.734,475.528,160.328z
		"/>
	<path fill="#F37021" d="M463.73,139.392c-11.261-25.186-60.816-29.2-123.634-13.913l2.495,4.864
		c54.64-13.806,96.483-12.211,105.16,7.215c8.74,19.55-18.392,52.078-65.7,83.774L306.701,74.224L144.179,300.961
		c-14.292-1.965-24.132-6.997-27.85-15.313c-11.18-25.016,36.344-71.274,109.742-109.857l7.418-10.34
		c-85.642,43.225-141.114,100.505-126.443,133.316c15.942,35.681,108.713,28.932,207.206-15.082
		C412.748,239.685,479.67,175.074,463.73,139.392z M305.159,263.339c-30.456,13.612-60.121,23.78-86.646,30.255l77.645-119.338
		l39.436,74.4C325.857,253.713,315.702,258.633,305.159,263.339z"/>
</g>
</svg>
