<svg xmlns="http://www.w3.org/2000/svg" fill-rule="evenodd" clip-rule="evenodd" viewBox="0 0 3508 2480" shape-rendering="geometricPrecision" image-rendering="optimizeQuality"><path fill="#f7fafc" d="m0 0h3508v2480h-3508z"/><path d="m3197 2176c71 0 129 58 129 129s-58 129-129 129h-2465c-71 0-129-58-129-129s58-129 129-129h217c-11-5-18-16-18-29v-192c0-17 14-32 31-32 0-9-1-28 1-36-12-9-6-28 9-28h43c16 0 22 20 9 29 2 8 1 26 1 34h3c17 0 32 15 32 33v192c0 13-7 24-18 29h77c-11-5-18-16-18-29v-192c0-17 13-32 31-32 0-9-1-28 1-36-12-9-6-28 9-28h43c16 0 22 20 9 29 1 8 0 26 0 34h3c18 0 33 15 33 33v192c0 13-8 24-18 29h78c-11-5-19-16-19-29v-192c0-17 14-32 31-32 0-9-1-28 1-36-12-9-6-28 10-28h42c16 0 22 20 9 29 2 7 1 27 1 34h3c18 0 33 15 33 33v192c0 13-8 24-19 29h108v-52h54l74-11-77-11c-20-5-17-33 4-35l73-10-75-11c-20-5-19-32 0-35l75-11c-9-2-65-11-69-10-16 3-26-15-17-28 3-6 10-9 17-8l69-10-75-11c-20-5-19-32 0-35l76-11-76-11c-20-3-21-32 0-35l74-11-52-8c-15 18-44 24-78 24-46 0-84-38-84-84v-4c-6-4-11-11-11-19v-30l-2 6-44-18 7-19-13-11v95c0 46-37 84-83 84h-14c-46 0-83-38-83-84v-326c0-12-10-22-21-22-12 0-22 10-22 22v315c0 46-37 83-83 83h-10c-46 0-83-37-83-83v-333c0-12-10-22-23-22h-5c-13 0-23 10-23 22v367c0 46-37 83-82 83s-82-37-82-83v-180h-50v404h25l41 58-201-2 40-56h33v-404h-58v74c0 11-10 21-21 21h-31v183c0 11-9 21-20 21h-44v413h31v54h33v62h-310v-62h25v-54h24v-413h-43c-11 0-20-10-20-21v-183h-37c-12 0-21-10-21-21v-189c0-11 9-21 21-21h37v-41c0-11 9-21 20-21h71v-71c0-12 9-21 21-21h16v-151h-15c-18 0-29-19-21-34-119-53-131-218-20-288v-27c0-21 17-39 38-40-11-14-1-33 18-33v-150c-8 0-23 2-23-11l1-142c-40 0-34 5-34-43 0-6 4-10 10-10h23v-152h-20l-19-145h186l-19 145h-21v152c39 0 34-5 34 43 0 5-5 10-10 10h-24v142c0 13-14 11-22 11v150c19 0 29 19 18 33 21 1 38 19 38 40v27c68 43 91 123 67 194-14 40-45 74-84 93 10 15-1 35-19 35h-20v151h21c11 0 21 9 21 21v71h72c11 0 20 10 20 21v41h31c11 0 21 10 21 21v41h58v-113c0-46 38-84 84-84l15 1v-487c0-11 9-20 20-20h115l-10-4 22-54 29 12c9-13 20-23 32-32l-13-30 53-23 14 31c14-2 29-3 43 0l13-32 54 22-13 31c13 8 23 18 32 30l31-13 22 53-19 9h109v-29c0-12 9-21 20-21h34c4 0 9 1 12 4v-91c0-30 24-55 52-55h36v-214c-23-6-40-27-40-52 0-30 25-54 54-54s53 23 54 52l32 21 40-71 34 86 23-28 37 13 39-81 28 114 28-47 30 19 30-149 18 136 15-13c2-29 25-52 54-52 30 0 54 24 54 54 0 26-18 47-42 53v213h20c29 0 52 25 52 55v124h156c6 0 11-5 11-11v-187h-20l-8-34h-12l-19-144h185l-19 144h-9l-8 34h-12v179h147c12 0 21 10 21 21v508c0 12-9 21-21 21h-167c-11 0-20-9-20-21v-437h-205v77h73c10 0 20 9 20 20v110c52 21 36 93-16 93-47 0-69-63-21-91v-91h-56v28c0 30-23 55-52 55h-39v13c0 12-9 21-21 21h-22v10c0 10-8 18-18 18h-18v64c11 1 20 10 20 21v28h260c16 0 28 12 28 27v191h60c0-14 18-21 27-9 5-8 17-8 23 0 6-8 17-8 23 0 6-8 18-8 23 0 6-8 18-8 24 0 6-8 17-8 23 0 6-8 17-8 23 0 6-8 18-8 24 0 5-8 17-8 23 0 6-8 17-8 23 0 6-8 18-8 23 0 6-8 18-8 24 0 5-8 17-8 23 0 6-8 17-8 23 0 6-8 18-8 23 0 6-8 18-8 24 0 6-8 17-8 23 0 6-8 17-8 23 0 6-8 18-8 24 0 5-8 17-8 23 0 6-8 17-8 23 0 6-8 17-8 23 0 2-3 5-5 8-5v-90h-122c-16 0-30-13-30-30v-279h29v-50c-41-4-73-38-73-80 0-27 27-50 37-51 2-24 18-43 40-49v-170c-24-6-41-28-41-53 0-1 1-1 1-1-19 13-46 0-46-23v-26c0-6 2-11 5-16 1-3 3-7 5-9l66-70v-31h-20v-28h90v28h-20v31l66 69c3 3 4 7 5 10 4 5 5 10 5 16v26c0 24-28 36-46 22v2c0 25-17 47-41 53v170c22 6 39 25 41 48 9 0 38 24 38 52 0 42-32 76-73 80v50h26v200c0 12 10 22 23 22h35v-29c0-9 7-17 16-17h49v-22h-15v-257c0-77 56-141 132-151 0-15-3-32 14-39v-30c-28-10-22-52 9-52 30 0 37 42 8 52v30c18 7 15 24 15 40 74 12 127 75 127 150v257h-17v22h64c9 0 17 8 17 17v29h121c17 0 30 14 30 30v279h-29v50c41 5 73 39 73 81 0 23-26 51-38 51-3 0-5-2-5-5v-32c0-28-22-49-49-49s-49 21-49 49v32c0 3-2 5-5 5-10 0-39-24-39-51 0-42 32-76 73-81v-50h-26v-199c0-13-10-23-22-23h-35v235c0 9-8 17-17 17h-43v258c33 13 55 48 50 83l-1 5h-200c-3-16-2-27 3-42 8-21 25-38 45-46l1-258h-104v258c33 13 54 48 49 83v5h-201c-2-16-2-27 4-42 8-21 24-38 45-46l1-258h-35c-9 0-16-8-16-17v-22c-3-1-6-3-8-5-6 7-17 7-23 0-6 7-17 7-23 0-6 7-18 7-23 0-6 7-18 7-24 0-6 7-17 7-23 0-6 7-17 7-23 0-6 7-18 7-24 0-5 7-17 7-23 0-1 1-2 2-4 3l4 9-21 9c3 10 3 21 2 31l20 8-16 40-19-8c-6 9-13 17-22 24l8 18-40 16-7-17c-11 3-22 3-33 1l-7 17-40-16 7-17c-9-6-17-14-23-23l-18 7-17-39 19-8c-2-11-2-21 0-32l-19-7 4-11c-4 0-8-2-11-5-5 7-17 7-23 0-6 7-17 7-23 0-6 7-17 7-23 0-8 10-27 7-27-12h-60v26c0 15-12 28-28 28h-180c0 14 1 110 0 116-2 9-10 16-20 16h-78v52h-47c19 6 15 33-5 35l-74 11 76 11c19 2 21 32 0 35l-74 11 75 11c21 3 20 34-2 35l-69 11 71 10c21 3 20 33-2 35l-73 11 75 11c21 3 20 33-2 35l-73 11 74 10c13 2 19 19 11 29h39v52h118c-11-5-19-16-19-29v-192c0-17 14-32 31-32 0-9-1-28 1-36-12-9-6-28 10-28h42c16 0 22 20 9 29 2 8 1 26 1 34h3c18 0 33 15 33 33v192c0 13-8 24-19 29h88c-11-5-19-16-19-29v-192c0-17 14-32 31-32 0-9-1-28 1-36-12-9-6-28 10-28h42c16 0 22 20 9 29 2 8 1 26 1 34h3c18 0 32 15 32 33v14 163c0 17 2 34-18 44h77c-10-5-18-16-18-29v-192c0-17 14-32 31-32 0-9-1-28 1-36-12-9-6-28 10-28h42c16 0 22 20 9 29 2 8 1 26 1 34h3c18 0 32 15 32 33v14 163c0 17 2 34-18 44h78c-11-5-18-16-18-29v-192c0-17 13-32 31-32 0-9-1-28 0-36-11-9-5-28 10-28h43c16 0 22 20 9 29 1 8 0 26 0 34h3c18 0 33 15 33 33v192c0 13-8 24-18 29h78c-14-4-23-16-23-31v-64c0-18 15-32 33-32h192c17 0 31 13 32 31 9 0 28-2 35 0 9-11 29-5 29 10v43c0 16-21 22-29 9-7 1-27 0-35 0 0 16-7 29-22 34h383m-250-2176h51v225h15v28h-15v13h15v28h-89v-28h16v-13h-16v-28h16v-225h7m123 451v26c0 15-13 28-28 28-16 0-29-13-29-28v-28l-44-47-44 47v28c0 15-13 28-28 28-16 0-29-13-29-28v-26c0-6 2-11 5-16 1-3 3-7 5-10l66-69v-31h-20v-28h89v28h-19v31l66 69c3 3 4 7 5 10 3 5 5 10 5 16m-514-451h51v340h16v28h-16v13h16v28h-90v-28h16v-13h-16v-28h16v-340h7m-1785 0h51v269h16v28h-16v12h16v28h-90v-28h16v-12h-16v-28h16v-269h7m123 494v26c0 16-12 28-28 28s-29-12-29-28l1-28-45-47-44 47v28c0 16-13 28-28 28-16 0-29-12-29-28v-26c0-5 2-10 5-15 1-4 3-7 5-10l66-70v-31h-20v-28h90v28h-20v31l66 70c3 3 4 6 5 10 4 5 5 10 5 15m1720 1255l-12 29-13-5c-4 6-9 11-14 15l5 13-30 12-5-12c-7 2-14 2-21 1l-5 12-29-12 4-12c-5-4-10-9-14-15l-13 5-12-29 13-6c-1-7-1-13 0-20l-14-5 12-30 14 6c4-5 9-10 14-14l-6-14 29-13 7 15c6-1 12-1 18 0l6-16 30 12-6 16c5 3 10 7 13 12l15-6 13 29-14 7c1 6 1 12 1 19l14 6m-2239 568v-412h-29v412h29m1019-897v-1c-8-6-21-4-31-4-13 0-23 10-23 22v74l13-10-11-24 44-19 6 14c0-9-1-42 1-49l1-3m1233-495v-9c-19 41-76 42-98 3v6c0 27 22 49 49 49s49-22 49-49m-4-361l-45-47-44 47v18c23-29 67-28 88 1 0-4 0-15 1-19m-608 956v-155c0-10-9-19-19-19h-185v33c0 5-2 9-4 12 8 0 14 9 11 16h53c11 0 20 10 20 21v111h105c10 0 19-9 19-19m-297-129c-3-3-5-7-5-12v-34h-150v34c0 5-2 9-4 12 8 0 14 9 11 16h136c-3-7 3-16 12-16m16-176v-64h-189v64c10 2 18 10 18 21v21h150v-21c0-11 9-21 21-21m132-579v-213c-22-5-39-23-42-45l-23 18-13-100-22 112-33-21-34 56-27-111-33 68-39-14-28 34-32-82-36 63-35-24c-4 24-22 42-45 46v213h442m-1153 884v-122c-5-3-10-2-15-2-12 0-22 10-22 22v113h26c6 0 11-5 11-11m752-180h-481c-16 0-28-13-28-28v-300l-44-17 10-24c-14-10-26-21-35-35l-25 10-19-44h-41c-6 0-12 5-12 12v674c0 4-2 5-3 8v189c0 12 9 22 21 22s21-10 21-22v-367c0-46 38-84 84-84h5c46 0 84 38 84 84v333c0 12 10 22 22 22h10c12 0 22-10 22-22v-315c0-46 37-83 83-83 45 0 82 37 82 83v326c0 13 10 23 22 23h14c12 0 22-10 22-23v-325c0-46 38-83 84-83 24 0 42-1 64 14 13 8 24 21 30 36 0-7 6-13 12-13-2-3-4-7-4-12m0-122v-21c0-12 10-21 22-21v-64h-22c-10 0-18-8-18-18v-10h-22c-11 0-21-9-21-21v-13h-39c-28 0-52-25-52-55v-91c-3 3-8 4-12 4h-34c-11 0-20-9-20-20v-25h-94l-16 41-26-11c-9 14-20 26-33 35l11 26-49 21v224c0 10 8 19 19 19h406z" fill="#fff"/><path d="m793 2302c0-43-35-77-77-77-19 0-36 7-50 18-15 16-25 37-25 59 0 21 8 41 22 57 14 13 32 21 53 21 42 0 77-35 77-78m2495 2c1-12-2-23-7-34-12-27-39-45-70-45-43 0-78 34-78 77s35 78 78 78c42 0 76-35 77-76m8-2c-1 4 0 17-7 34-17 42-64 72-119 72h-2410c-42 0-79-17-101-43-18-16-29-38-29-63 0-26 13-49 32-65 23-24 58-40 98-40h2410c58 0 106 32 121 78 3 9 5 18 5 27m-2600 83c18 10 40 16 64 16h2410c25 0 49-7 68-18-55 18-113-22-113-81 0-58 56-98 111-81-19-10-41-17-66-17h-2410c-23 0-43 6-61 15 52-11 102 30 102 83 0 56-52 96-105 83m2542-83c0-15-12-27-27-27s-27 12-27 27 12 27 27 27 27-12 27-27m-27-34c19 0 34 15 34 34s-15 35-34 35-35-16-35-35 16-34 35-34m-294-1791v-21c-13 15-32 14-41-1v22c0 11 9 20 21 20 11 0 20-9 20-20m47-81l-6-6c-8-4-14-12-14-22v-1l-60 64c-10 10-2 28 13 28 5 0 9-2 13-5l54-58m22-28v-43h-33v43c0 8 7 17 16 17 8 0 17-8 17-17m20-51v-12h-74v12h74m47 138c8-7 6-17 1-24l-61-65c0 10-4 16-11 22l-8 8 55 57c6 7 17 8 24 2m9 22v-22c-8 14-27 16-39 4l-2-2v20c0 11 9 20 21 20 11 0 20-9 20-20m8-26v26c0 15-13 28-28 28-16 0-29-13-29-28v-28l-44-47-44 47v28c0 15-13 28-28 28-16 0-29-13-29-28v-26c0-6 2-11 5-16 1-3 3-7 5-10l66-69v-31h-20v-28h89v28h-19v31l66 69c3 3 4 7 5 10 3 5 5 10 5 16m-7 1861c0-3-2-6-5-6h-91c-7 0-7 11 0 11h91c3 0 5-2 5-5m-5-14c18 0 18 27 0 27h-91c-18 0-18-27 0-27h91m-1-866c0-24-37-24-37 0s37 24 37 0m-19-26c15 0 26 12 26 26s-11 26-26 26c-14 0-25-12-25-26s11-26 25-26m19 91c0-24-37-24-37 0s37 24 37 0m-19-26c15 0 26 12 26 26s-11 26-26 26c-14 0-25-12-25-26s11-26 25-26m19 91c0-24-37-24-37 0 0 23 37 23 37 0m-19-26c15 0 26 11 26 26 0 14-11 25-26 25-14 0-25-11-25-25 0-15 11-26 25-26m11-1098c0 13-21 13-21 0 0-14 21-14 21 0m-59-172v-13h-43v13h43m16-20v-13h-74v13h74m0 40v-13h-74v13h74m7-20v28h-89v-28h16v-13h-16v-28h16v-225h7v225h43v-225h8v225h15v28h-15v13h15m-26 727c0-22-18-40-40-40h-132c-22 0-40 18-40 40s18 40 40 40h132c22 0 40-18 40-40m-40-48c27 0 48 21 48 48 0 26-21 48-48 48h-132c-26 0-48-22-48-48 0-27 22-48 48-48h132m21-594c13 0 14 20 0 20-13 0-13-20 0-20m1 642c0-16-12-29-28-29h-119c-16 0-29 13-29 29 0 15 13 28 29 28h119c16 0 28-13 28-28m-28-36c20 0 36 16 36 36 0 19-16 35-36 35h-119c-20 0-36-16-36-35 0-20 16-36 36-36h119m-41-530c13 0 13 21 0 21-14 0-14-21 0-21m-5 1880c0-18-14-32-32-32-17 0-32 14-32 32s15 32 32 32c18 0 32-14 32-32m-32-39c22 0 40 17 40 39s-18 40-40 40-39-18-39-40 17-39 39-39m2-894c0-29-23-52-52-54v39h-7v-39c-29 2-51 25-51 54 0 31 24 56 55 56 30 0 55-25 55-56m7 0c0 35-28 63-62 63-35 0-63-28-63-63 0-34 28-62 63-62 34 0 62 28 62 62m13 0c0-41-34-75-75-75-42 0-76 34-76 75 0 42 34 76 76 76 41 0 75-34 75-76m-75-83c46 0 83 38 83 83 0 46-37 84-83 84s-84-38-84-84c0-45 38-83 84-83m-51 1021c0-3-3-6-6-6h-90c-7 0-7 11 0 11h90c3 0 6-2 6-5m-6-14c18 0 18 27 0 27h-90c-18 0-18-27 0-27h90m-95-1745c0 13-20 13-20 0 0-14 20-14 20 0m-59-172v-13h-43v13h43m16-20v-13h-74v13h74m0 40v-13h-74v13h74m8-20v28h-90v-28h16v-13h-16v-28h16v-340h7v340h43v-340h8v340h16v28h-16v13h16m-26 1386l6-14-13-5c2-10 2-19-1-29l13-6-6-14-13 6c-6-9-13-15-21-20l5-14-14-6-6 14c-10-2-18-2-28 0l-6-13-14 6 5 13c-8 6-15 12-21 21l-12-5-6 14 12 5c-2 10-2 20 0 30l-12 5 7 14 11-4c6 9 12 15 22 22l-5 10 15 6 4-11c11 3 20 2 31 0l5 10 14-6-5-11c9-6 16-13 21-22l12 4m17-18l-12 29-13-5c-4 6-9 11-14 15l5 13-30 12-5-12c-7 2-14 2-21 1l-5 12-29-12 4-12c-5-4-10-9-14-15l-13 5-12-29 13-6c-1-7-1-13 0-20l-14-5 12-30 14 6c4-5 9-10 14-14l-6-14 29-13 7 15c6-1 12-1 18 0l6-16 30 12-6 16c5 3 10 7 13 12l15-6 13 29-14 7c1 6 1 12 1 19l14 6m-11 553c0-43-35-77-78-77s-78 34-78 77 35 78 78 78 78-35 78-78m-78-85c47 0 85 38 85 85s-38 85-85 85-85-38-85-85 38-85 85-85m52-1751c14 0 14 20 0 20-13 0-13-20 0-20m-33 1274c5-14-16-22-21-8-5 13 15 22 21 8m7-12c7 16-9 32-25 26-24-10-9-46 15-36 4 2 8 5 10 10m1 574c0-15-12-27-27-27s-27 12-27 27 12 27 27 27 27-12 27-27m-27-34c19 0 35 15 35 34s-16 35-35 35-35-16-35-35 16-34 35-34m-16-1726c13 0 13 21 0 21s-13-21 0-21m-98 1770c0-3-2-6-5-6h-91c-7 0-7 11 0 11h91c3 0 5-2 5-5m-5-14c18 0 18 27 0 27h-91c-18 0-18-27 0-27h91m-15-665c5-12-4-25-16-25-21 0-25 28-7 35 9 4 20-1 23-10m8-17c9 21-13 44-34 35-27-11-20-51 10-51 10 0 20 6 24 16m-76-369c0-21-12-38-31-47v-273c0-12-9-21-21-21s-21 9-21 21v274c-51 28-29 97 22 97 28 0 51-23 51-51m9 0c0 33-27 59-60 59s-59-26-59-59c0-21 11-40 28-51v-269c0-16 14-30 30-30s30 14 30 30v268c19 10 31 30 31 52m-42 3c0-10-6-17-15-21v-195c0-7-10-7-10 0v195c-28 8-20 42 4 42 12 0 21-9 21-21m9 0c0 16-14 29-30 29-32 0-41-44-12-56v-189c0-18 27-18 27 0v190c9 5 15 15 15 26m-26 1057c0-18-15-32-32-32-18 0-32 14-32 32s14 32 32 32c17 0 32-14 32-32m-32-39c22 0 39 17 39 39s-17 40-39 40-40-18-40-40 18-39 40-39m-24-1093v8h-25v-8h25m0-66v8h-25v-8h25m0-66v8h-25v-8h25m0-66v9h-25v-9h25m0-66v9h-25v-9h25m-13 242v8h-12v-8h12m0-22v8h-12v-8h12m0-44v8h-12v-8h12m0-22v8h-12v-8h12m0-44v8h-12v-8h12m0-22v8h-12v-8h12m0-44v9h-12v-9h12m0-22v9h-12v-9h12m-58 1379c0-3-3-6-6-6h-91c-7 0-7 11 0 11h91c3 0 6-2 6-5m-6-14c18 0 18 27 0 27h-91c-18 0-18-27 0-27h91m-141 4c0-43-34-77-77-77s-78 34-78 77 35 78 78 78 77-35 77-78m-77-85c47 0 85 38 85 85s-38 85-85 85-85-38-85-85 38-85 85-85m27 85c0-15-12-27-27-27s-27 12-27 27 12 27 27 27 27-12 27-27m-27-34c19 0 35 15 35 34s-16 35-35 35-35-16-35-35 16-34 35-34m6-1256v-301c0-22-18-40-40-40h-501c-23 0-40 18-40 40v301c0 22 17 40 40 40h501c22 0 40-18 40-40m8-301v301c0 27-22 49-48 49h-501c-27 0-49-22-49-49v-301c0-27 22-48 49-48h501c26 0 48 21 48 48m-63 261v-223c0-7-5-12-12-12h-113c-6 0-12 5-12 12v223c0 7 6 13 12 13h113c7 0 12-6 12-13m8-223v223c0 12-9 21-20 21h-113c-11 0-20-9-20-21v-223c0-11 9-21 20-21h113c11 0 20 10 20 21m-55 931c0-16-25-16-25 0 0 17 25 17 25 0m8 0c0 28-41 28-41 0 0-11 9-20 20-20 12 0 21 9 21 20m-36 632c0-3-2-6-5-6h-91c-7 0-7 11 0 11h91c3 0 5-2 5-5m-5-14c18 0 18 27 0 27h-91c-18 0-18-27 0-27h91m-27-772v-53c0-10-9-19-19-19h-275c-10 0-19 9-19 19v53c0 10 9 19 19 19h123c2 5 5 9 11 9h26c6 0 10-4 12-9h103c10 0 19-9 19-19m8-53v53c0 15-12 27-27 27h-98c-3 6-10 9-17 9h-26c-7 0-13-3-17-9h-117c-15 0-27-12-27-27v-53c0-15 12-27 27-27h275c15 0 27 12 27 27m-14 207c0-16-25-16-25 0 0 17 25 17 25 0m8 0c0 12-9 21-21 21-11 0-21-9-21-21 0-11 10-20 21-20 12 0 21 9 21 20m-29-157v-47c0-3-3-6-7-6h-245c-4 0-7 3-7 6v47c0 3 3 6 7 6h103c3-6 10-10 17-10h23c7 0 13 4 16 10h86c4 0 7-3 7-6m8-47v47c0 8-6 15-15 15h-92c-1-5-4-10-10-10h-23c-7 0-9 4-11 10h-109c-8 0-15-7-15-15v-47c0-8 7-15 15-15h245c9 0 15 7 15 15m-54 204c0-16-24-16-24 0 0 17 24 17 24 0m9 0c0 28-42 28-42 0 0-11 9-20 21-20 11 0 21 9 21 20m-84-957c4 0 7 1 10 1-2-10-17-10-19 0 3 0 6-1 9-1m10 288v-191h-19v191c0 12 19 12 19 0m10-212c0-11-15-11-15 0 0 10 15 10 15 0m21-27l-2-12c-5-12-11-20-23-25-9-4-22-4-31 0l-4 2c-6 1-18 16-19 23-2 9-3 14 0 24 5 19 24 30 42 29-13-8-8-31 8-31 10 0 19 10 16 20 8-8 13-19 13-30m8-4c2 21-11 42-31 50v193c0 23-35 23-35 0v-193c-42-17-42-75 0-91 0-25 35-25 35 0 18 6 29 22 31 41m-17 1539c0-18-14-32-32-32-17 0-31 14-31 32s14 32 31 32c18 0 32-14 32-32m-32-39c22 0 40 17 40 39s-18 40-40 40c-21 0-39-18-39-40s18-39 39-39m0-588c0-16-25-16-25 0 0 17 25 17 25 0m8 0c0 12-9 21-20 21-12 0-21-9-21-21 0-11 9-20 21-20 11 0 20 9 20 20m-103-791v-163c0-12-18-12-18 0v163h18m0 122v-26h-18v26c0 12 18 12 18 0m14-102c0-12-19-12-19 0s19 12 19 0m18 28c0-10-4-19-10-27-1 23-35 22-35-1 0-5 2-10 6-13-8 0-15 1-21 5-16 10-24 26-21 44 6 24 33 39 56 29l3-2c13-6 22-21 22-35m8-5c2 21-11 43-31 50v29c0 23-35 23-35 0v-29c-39-15-46-71 0-91v-165c0-23 35-23 35 0v165c17 8 28 22 31 41m-18 1380c0-3-3-6-6-6h-91c-7 0-7 11 0 11h91c3 0 6-2 6-5m-6-14c18 0 18 27 0 27h-91c-18 0-18-27 0-27h91m-115-1529v-44c0-11-17-11-17 0v44h17m0 243v-147h-17v147c0 11 17 11 17 0m16-170c0-11-16-11-16 0 0 10 16 10 16 0m16-25c0-40-52-55-73-24-23 31 5 72 42 63-15-7-10-31 7-31 9 0 16 7 17 15 4-7 7-15 7-23m8-4c2 22-12 42-32 50v149c0 22-33 22-33 0v-149c-45-19-42-77 0-92v-46c0-22 33-22 33 0v46c17 7 30 23 32 42m-68 1489c0-43-34-77-77-77s-78 34-78 77 35 78 78 78 77-35 77-78m-77-85c47 0 85 38 85 85s-38 85-85 85-85-38-85-85 38-85 85-85m27 85c0-15-12-27-27-27s-27 12-27 27 12 27 27 27 27-12 27-27m-27-34c19 0 34 15 34 34s-15 35-34 35-35-16-35-35 16-34 35-34m-137 44c0-3-3-6-6-6h-90c-7 0-7 11 0 11h90c3 0 6-2 6-5m-6-14c18 0 18 27 0 27h-90c-18 0-18-27 0-27h90m-145-1439c0-18-14-33-33-33-18 0-33 15-33 33s15 33 33 33c19 0 33-15 33-33m-33-41c23 0 42 18 42 41s-19 42-42 42c-22 0-41-19-41-42s19-41 41-41m30 1489c0-18-14-32-32-32s-32 14-32 32 14 32 32 32 32-14 32-32m-32-39c22 0 40 17 40 39s-18 40-40 40-39-18-39-40 17-39 39-39m-65 44c0-3-2-6-5-6h-91c-7 0-7 11 0 11h91c3 0 5-2 5-5m-5-14c18 0 18 27 0 27h-91c-18 0-18-27 0-27h91m-184-1778v-20c-15 15-33 13-42-2v22c0 11 9 21 21 21 11 0 21-10 21-21m46-81l-5-6c-9-4-15-12-15-22v-1l-60 64c-9 10-2 29 13 29 5 0 10-3 13-6l54-58m22-28v-43h-33v43c0 8 7 17 16 17s17-8 17-17m20-50v-13h-74v13h74m47 137c8-7 6-17 1-24l-61-65c0 15-6 17-12 23l-6 7 54 58c6 7 17 7 24 1m10 22v-22c-9 14-28 17-40 4l-2-2v20c0 11 9 21 21 21 11 0 21-10 21-21m7-26v26c0 16-12 28-28 28s-29-12-29-28l1-28-45-47-44 47v28c0 16-13 28-28 28-16 0-29-12-29-28v-26c0-5 2-10 5-15 1-4 3-7 5-10l66-70v-31h-20v-28h90v28h-20v31l66 70c3 3 4 6 5 10 4 5 5 10 5 15m-21-13c0 13-20 13-20 0s20-13 20 0m-59-172v-12h-43v12h43m16-20v-13h-74v13h74m0 40v-12h-74v12h74m8-20v28h-90v-28h16v-12h-16v-28h16v-269h7v269h43v-269h8v269h16v28h-16v12h16m-46 85c14 0 14 20 0 20-13 0-13-20 0-20m-49 1908c0-15-12-27-27-27s-27 12-27 27 12 27 27 27 27-12 27-27m-27-34c19 0 34 15 34 34s-15 35-34 35-35-16-35-35 16-34 35-34m8-1797c13 0 13 20 0 20s-14-20 0-20m-253 1083v-93c0-7-5-13-12-13h-234c-7 0-12 6-12 13v92l26-45 23 64 27-35v18l30-46 18 50 1-18 38 33 43-81 11 75 19-31 22 17m0 85v-74l-20-16-26 43-11-73-36 68-32-28-2 42-27-74-37 55v-21l-21 28-22-61-24 41v70c0 7 5 12 12 12h234c7 0 12-5 12-12m9-178v178c0 11-10 21-21 21h-234c-11 0-20-10-20-21v-178c0-12 9-21 20-21h234c11 0 21 9 21 21m-10 253c0-19-30-19-30 0 0 20 30 20 30 0m8 0c0 13-10 24-23 24s-23-11-23-24c0-12 10-23 23-23s23 11 23 23m-8 66c0-4-3-7-7-7h-167c-9 0-9 14 0 14h167c4 0 7-3 7-7m-7-16c20 0 20 31 0 31h-167c-20 0-20-31 0-31h167m-21-783c0-57-46-103-103-103s-103 46-103 103 46 103 103 103 103-46 103-103m-103-111c61 0 111 50 111 111s-50 111-111 111c-62 0-111-50-111-111s49-111 111-111m79 111c0-43-36-79-79-79-44 0-79 36-79 79s35 79 79 79c43 0 79-36 79-79m-79-87c48 0 87 39 87 87s-39 87-87 87-87-39-87-87 39-87 87-87m55 820c0-19-29-19-29 0 0 20 29 20 29 0m9 0c0 13-11 24-24 24-12 0-23-11-23-24 0-12 11-23 23-23 13 0 24 11 24 23m-45-733c0-25-38-25-38 0s38 25 38 0m-19-28c15 0 27 13 27 28s-12 27-27 27-28-12-28-27 13-28 28-28m-21 761c0-19-29-19-29 0 0 20 29 20 29 0m9 0c0 13-11 24-23 24-13 0-24-11-24-24 0-12 11-23 24-23 12 0 23 11 23 23m-51 123c0-10-11-10-11 0 0 7 11 7 11 0m8-2c0 20-27 20-27 0 0-18 27-18 27 0m-41-121c0-19-30-19-30 0 0 20 30 20 30 0m8 0c0 13-10 24-23 24s-23-11-23-24c0-12 10-23 23-23s23 11 23 23m-22 123c0-10-11-10-11 0 0 7 11 7 11 0m8-2c0 20-27 20-27 0 0-18 27-18 27 0m-57-144v-213h-37c-7 0-13 5-13 12v189c0 7 6 12 13 12h37m158 626v-412h-87v412h87m24-1575v-150h-46v150h46m0 573v-151h-46v151h46m13 1002v-412h-29v412h29m9-1554c0-9-7-13-14-13h-64c-16 0-16 25 0 25h66c6 0 12-6 12-12m0-377v-151h-90v151h90m0 77v-22c0-1-1-2-2-2h-86c-1 0-2 1-2 2v22h90m0 69v-60h-90v60h90m0 49v-40h-90v40c0 4 8 2 14 2h74c1 0 2-1 2-2m21 560c0-3-1-6-4-9-38 16-82 17-121 2-6 9 1 22 13 22h97c8 0 15-6 15-15m-2 266v-71c0-7-5-13-12-13h-99c-7 0-13 6-13 13v71h124m15-978v-33c0-1-1-2-2-2h-154c-1 0-2 1-2 2v33c0 1 1 2 2 2h154c1 0 2-1 2-2m0 408v-22c0-18-15-32-32-32h-94c-18 0-32 14-32 32v22c49-26 109-26 158 0m-13-612l17-128h-167l17 128h133m27 2092v-412h-48v412h48m31 54v-46h-236v46h236m31-1390c0-85-69-155-155-155-95 0-163 81-155 171 8 80 77 139 155 139 87 0 155-72 155-155m2 902v-455c0-7-5-12-12-12h-284c-6 0-12 5-12 12v455c0 7 6 12 12 12h284c7 0 12-5 12-12m0 541v-45h-294v45h294m51-745v-189c0-7-5-12-12-12h-31v213h31c7 0 12-5 12-12m120 330v-404h-44v404h44m46-620v-46h-15c-42 0-75 33-75 75v113h44v-113c0-17 14-31 31-31 5 0 10 0 15 2m0 131v-122c-5-3-10-2-15-2-12 0-22 10-22 22v113h26c6 0 11-5 11-11m13 538l-30-41h-111l-28 39 169 2m230-1055v-43c-26-11-47-31-58-58h-46l15 34 23-11c12 18 25 31 42 42l-9 23 33 13m96 1121v-147h-87v147h87m0 23v-15h-95v-163h95v-14c0-13-11-24-24-24h-12c0-15 2-35-2-48 4-1 9-3 9-8s-4-8-8-8h-43c-8 0-10 11-3 15l4 1-3 12v36h-6c-14 0-25 11-25 24v192c0 13 11 24 25 24h64c13 0 24-11 24-24m80-1215l12-30h-44c-12 28-34 48-60 59v43l38-16-11-23c17-12 30-26 40-43l25 10m15-117l-17-38-28 12c-11-15-24-27-40-37l12-30-38-15-12 30c-18-3-36-3-54 1l-13-30-38 16 13 29c-17 11-29 23-40 39l-28-11-15 38 22 9h22c14-47 57-79 106-79s92 32 105 79h15v-1l28-12m75 1309v-147h-87v147h87m0 23v-15h-95v-163h95v-14c0-13-11-24-25-24h-11c0-15 2-35-3-48 5-1 10-3 10-8s-4-8-8-8h-43c-8 0-10 11-3 15l4 1-3 12v36h-7c-13 0-24 11-24 24v192c0 13 11 24 24 24h64c14 0 25-11 25-24m25-1253v-58h-149l-1-3c-12-45-52-76-98-76-47 0-87 31-99 76l-1 3h-166c-6 0-12 5-12 12v672c0 11-8 20-19 20h-146v56h215c6 0 11-5 11-11v-671c0-11 9-20 20-20h101l1 3c35 86 156 85 190-3h153m62 675l-21-8v54l20-9c-2-12-2-24 1-37m4-642v-128c0-7-5-13-12-13h-34c-6 0-12 6-12 13v128c0 7 6 12 12 12h34c7 0 12-5 12-12m19 835v-104c-2-2-4-5-6-7l-20 8-18-43v146c0 17-14 31-31 31h-14c-17 0-31-14-31-31v-326c0-41-33-75-73-75-41 0-74 34-74 75v315c0 17-14 31-31 31h-10c-17 0-31-14-31-31v-333c0-42-33-75-75-75h-5c-42 0-76 33-76 75v367c0 17-13 30-29 30s-29-13-29-30v-182c-3 1-6 2-8 2h-37v180c0 41 33 75 74 75s74-34 74-75v-367c0-17 14-31 31-31h5c17 0 31 14 31 31v333c0 41 34 75 75 75h10c41 0 75-34 75-75v-315c0-17 13-30 30-30 16 0 29 13 29 30v326c0 42 34 75 75 75h14c41 0 75-33 75-75m60-142v-62c-36 5-36 58 0 62m0 66v-57c-20-2-36-19-36-40 0-20 16-38 36-39v-58l-10-23-29 12 10 23c-14 9-23 19-32 32l-22-9-12 29 21 8c-3 16-3 31 0 47l-20 9 13 28 18-8c10 14 20 25 35 34l-8 19 29 11 7-18m0 438v-147h-86v147h86m0 23v-15h-95v-163h95v-14c0-13-11-24-24-24h-11c0-14 1-35-3-48 4-1 9-3 9-8s-3-8-8-8h-42c-8 0-11 11-3 15l3 1-3 12v36h-6c-13 0-24 11-24 24v192c0 13 11 24 24 24h64c13 0 24-11 24-24m2-727v-1c-8-6-21-4-31-4-13 0-23 10-23 22v74l13-10-11-24 44-19 6 14c0-9-1-42 1-49l1-3m22-784v-212h-7v212h7m45-266c0-25-21-46-46-46s-45 21-45 46 20 46 45 46 46-21 46-46m-48 1037h37c-12-27-39-45-69-45h-18c-42 0-75 34-75 75v121l16-42 24 10c1-2 3-4 4-6v-83c0-17 14-30 31-30 12 0 26-2 36 6 4-4 9-6 14-6m74-192v-64h-22c-10 0-18-8-18-18v-10h-22c-11 0-21-9-21-21v-13h-39c-28 0-52-25-52-55v-91c-3 3-8 4-12 4h-34c-11 0-20-9-20-20v-25h-94l-16 41-26-11c-9 14-20 26-33 35l11 26-49 21v224c0 10 8 19 19 19h406v8h-406c-15 0-28-12-28-27v-274c-21 7-45 6-67-1v349c0 11 9 19 20 19h481v9h-481c-16 0-28-13-28-28v-300l-44-17 10-24c-14-10-26-21-35-35l-25 10-19-44h-41c-6 0-12 5-12 12v674c0 4-2 5-3 8v189c0 12 9 22 21 22s21-10 21-22v-367c0-46 38-84 84-84h5c46 0 84 38 84 84v333c0 12 10 22 22 22h10c12 0 22-10 22-22v-315c0-46 37-83 83-83 45 0 82 37 82 83v326c0 13 10 23 22 23h14c12 0 22-10 22-23v-325c0-46 38-83 84-83 24 0 42-1 64 14 13 8 24 21 30 36 0-7 6-13 12-13-2-3-4-7-4-12v-143c0-12 10-21 22-21m3 570v-25h-26c0 16 10 25 26 25m47-570v-64h-42v64h42m18 164v-143c0-7-6-13-13-13h-56c-7 0-13 6-13 13v143c0 7 6 12 13 12h56c7 0 13-5 13-12m5 28c4-1 3-7-1-7h-90c-4 0-5 7-1 7h92m153-70v-72h-150v72h150m5 54c-3-3-5-7-5-12v-34h-150v34c0 5-2 9-4 12 8 0 14 9 11 16h136c-3-7 3-16 12-16m16-176v-64h-189v64c10 2 18 10 18 21v21h150v-21c0-11 9-21 21-21m17 730c1-5-3-10-8-11l-132-18 131-20c11-2 10-18-1-19l-131-19 130-19c12 0 13-17 2-19l-54-8h-198v-19c-21 0-34-12-34-33h-44c0 44 33 77 75 77 34 0 60-5 75-24l113 16-131 20c-11 2-10 17 0 19l132 19-131 19c-11 2-11 17 0 19l130 19-125 18c-6 0-7-1-12 5s1 16 9 15h4l124 17-130 20c-11 2-11 17 0 19l130 18-130 20c-11 1-12 17-1 18l131 19-75 11h128c3 0 14-1 17-3 7-4 6-16-3-17l-131-19 130-19c12 0 13-17 2-19l-132-19 130-19c12 0 13-17 2-19l-128-18 126-19c5 0 9-3 10-8m32-730v-64h-41v64h41m2 589v-39h-287v39h287m0 368v-39h-287v39h287m18-793v-143c0-7-6-13-13-13h-56c-7 0-12 6-12 13v143c0 7 5 12 12 12h56c7 0 13-5 13-12m5 28c4-1 3-7-1-7h-89c-5 0-6 7-2 7h92m11-274v-10h-363c0 7-2 19 9 19h344c5 0 10-4 10-9m43-31v-13h-449v13c0 7 5 13 12 13h424c7 0 13-6 13-13m4-466v-213c-22-5-39-23-42-45l-23 18-13-100-22 112-33-21-34 56-27-111-33 68-39-14-28 34-32-82-36 63-35-24c-4 24-22 42-45 46v213h442m15 0v-212h-7v212h7m2 1103v-311c0-7-6-12-12-12h-458c-7 0-12 5-12 12 0 41-1 310 0 314 1 6 6 10 12 10h458c6 0 12-6 12-13m40-1369c0-25-21-46-46-46s-45 21-45 46 20 46 45 46 46-21 46-46m30 664v-28h-1v-41h1v-274c0-26-20-46-44-46h-544c-24 0-43 20-43 46v343c0 26 19 47 43 47h544c24 0 44-21 44-47m60 1090v-147h-86v147h86m0 23v-15h-95v-163h95v-14c0-13-11-24-24-24h-11c0-15 1-35-3-48 4-1 9-3 9-8s-3-8-8-8h-42c-8 0-11 11-3 15l3 1-3 12v36h-6c-13 0-24 11-24 24v192c0 13 11 24 24 24h64c13 0 24-11 24-24m2-627v-155c0-10-9-19-19-19h-185v33c0 5-2 9-4 12 8 0 14 9 11 16h53c11 0 20 10 20 21v111h105c10 0 19-9 19-19m31-427v-108c0-7-6-12-12-12h-73v25h64v96c7-2 14-2 21-1m32 47c0-21-18-40-40-40-23 0-42 21-39 44 2 20 19 36 39 36 22 0 40-18 40-40m13 460v-309c0-10-9-19-20-19h-260v66h185c15 0 27 12 27 27v155c0 15-12 27-27 27h-105v73h180c11 0 20-9 20-20m68-34v-75h-60v75h60m22 11v-95c0-9-14-9-14 0v95c0 8 14 8 14 0m12 547v-147h-86v147h86m0 23v-15h-95v-163h95v-14c0-13-11-24-24-24h-11c0-15 1-35-3-48 4-1 9-3 9-8s-3-8-8-8h-42c-8 0-11 11-3 15l3 1-3 12v36h-6c-13 0-24 11-24 24v192c0 13 11 24 24 24h64c13 0 24-11 24-24m4-1279v-251h-60v187c0 11-9 20-20 20h-156v56h225c6 0 11-5 11-12m7 709v-95c0-9-13-9-13 0v95c0 8 13 8 13 0m13-994h-108c1 5 3 13 6 25h96c3-12 5-20 6-25m10 994v-95c0-9-13-9-13 0v95c0 8 13 8 13 0m1-1002l17-128h-167l17 128h8 120 5m22 1002v-95c0-9-13-9-13 0v95c0 8 13 8 13 0m24 0v-95c0-9-13-9-13 0v95c0 4 4 7 8 6l1-3h2c1-1 2-2 2-3m23 0v-95c0-9-13-9-13 0v95c0 8 13 8 13 0m23 0v-95c0-9-13-9-13 0v95c0 8 13 8 13 0m23 0v-95c0-9-13-9-13 0v95c0 8 13 8 13 0m20 547v-147h-87v147h87m0 23v-15h-95v-163h95v-14c0-13-11-24-24-24h-12c0-15 2-35-2-48 4-1 9-3 9-8s-4-8-8-8h-42c-9 0-11 11-4 15l4 1-3 12v36h-6c-14 0-25 11-25 24v192c0 13 11 24 25 24h64c13 0 24-11 24-24m3-822v-508c0-7-6-12-13-12h-147v63c0 11-9 20-20 20h-12v437c0 7 5 13 12 13h167c7 0 13-6 13-13m1 252v-95c0-9-13-9-13 0v95c0 8 13 8 13 0m23 0v-95c0-9-13-9-13 0v95c0 8 13 8 13 0m23 0v-95c0-9-13-9-13 0v95c0 8 13 8 13 0m24 0v-95c0-9-14-9-14 0v95c0 8 14 8 14 0m23 0v-95c0-9-13-9-13 0v95c0 8 13 8 13 0m8 98l10-25-18-7c2-14 1-26-2-41l19-8-1-3c-5 0-9-2-11-5-6 7-18 7-23 0-6 7-18 7-24 0-5 7-17 7-23 0-6 7-17 7-23 0-6 7-18 7-23 0-6 7-18 7-24 0-6 7-17 7-23 0-6 7-17 7-23 0-5 5-2 0-6 11l18 7c-3 15-4 27-1 42l-17 7 11 24 16-7c8 13 18 23 30 31l-6 16 24 9 7-15c15 2 28 2 43-1l7 16 24-11-7-16c12-9 21-18 29-31l17 7m15-98v-95c0-9-13-9-13 0v95c0 8 13 8 13 0m23 0v-95c0-9-13-9-13 0v95c0 8 13 8 13 0m21-985v-21c-14 15-32 15-42-1v22c0 28 42 26 42 0m3 985v-95c0-9-13-9-13 0v95c0 8 13 8 13 0m4 547v-147h-87v147h87m0 23v-15h-95v-163h95v-14c0-13-11-24-25-24h-11c0-14 2-35-3-48 5-1 9-3 9-8s-3-8-7-8h-43c-8 0-10 11-3 15l4 1-3 12v36h-7c-13 0-24 11-24 24v192c0 13 11 24 24 24h64c14 0 25-11 25-24m19-570v-95c0-9-13-9-13 0v95c0 8 13 8 13 0m20-1066l-5-6c-9-4-15-12-15-22v-1l-60 64c-9 10-2 28 13 28 5 0 10-2 13-5l54-58m3 1066v-95c0-9-13-9-13 0v95c0 8 13 8 13 0m8-740v-167h-12v167h12m7 232v-49h-24v49h24m4-586v-43h-33v43c0 11 14 22 24 14 5-3 9-8 9-14m4 1094v-95c0-9-13-9-13 0v95c0 8 13 8 13 0m16-1145v-12h-74v12h74m-27 230c21-5 37-24 37-46 0-26-21-47-47-47s-47 21-47 47c0 22 15 41 37 46h20m29 485v-70h-79v70h79m0 65v-57h-79v57h79m-79 91l81-24c-1-3-2-7-2-10v-50h-79v84m85-739l-45-47-44 47v18c23-29 67-28 88 1 0-4 0-15 1-19m0 1013v-95c0-9-13-9-13 0v95c0 8 13 8 13 0m-45-638c26 0 47-21 47-47s-21-47-47-47-47 21-47 47 21 47 47 47m49-14v-9c-19 41-76 42-98 3v6c0 27 22 49 49 49s49-22 49-49m5 370h1c-4-2-8-5-10-9l-85 25v37c0 13 10 23 22 23h72v-76m14 282v-95c0-9-13-9-13 0v95c0 8 13 8 13 0m17-638c0-22-20-40-28-43v29c0 31-25 57-57 57-31 0-56-26-56-57v-29c-8 4-28 22-28 43 0 41 33 74 74 74h21c41 0 74-33 74-74m5-381c0-4-2-9-5-12l-61-65c0 10-3 16-11 22l-7 8 54 57c10 12 29 5 30-10m1 1019v-95c0-9-13-9-13 0v95c0 8 13 8 13 0m3-985v-22c-10 15-29 16-40 4l-2-2v20c0 11 9 20 21 20 11 0 21-9 21-20m9 989v-104c-1 1-2 3-2 5v95c0 1 1 3 2 4m1-210v-72h-35c-3 0-5-1-7-2v74h42m94-126v-22h-22v22h22m5 925v-87h-146v87h146m25-925v-22h-22v22h22m21 408v-23h-87v23h87m0 48v-41h-87v41h87m0 47v-40h-87v40h87m0 48v-40h-87v40h87m0 48v-40h-87v40h87m0 41v-33h-87v33c6-2 14-3 21-3h45c7 0 14 1 21 3m8-640v-22h-22v22h22m30 0v-22h-22v22h22m12 723c4-32-18-64-47-74-8-3-16-5-24-5h-45c-43 0-76 41-71 79h187m15 165v-43c0-8-12-10-15-3l-1 4-12-3h-36v-7c0-13-11-24-24-24h-192c-14 0-25 11-25 24v64c0 14 11 25 25 25h14v-95h164v95h14c13 0 24-11 24-25v-11c14 0 35 2 48-3 1 5 3 9 8 9 4 0 8-3 8-7m2-888v-22h-21v22h21m12-524c0-26-38-26-38 0 0 25 38 25 38 0m18 524v-22h-22v22h22m30 0v-22h-22v22h22m29 0v-22h-22v22h22m30 0v-22h-22v22h22m16-30v-249c0-72-52-133-123-143l-3-1v-25c0-20-31-20-31 0v25h-4c-73 8-129 70-129 144v249h290m5 438v-23h-88v23h88m0 48v-41h-88v41h88m0 47v-40h-88v40h88m0 48v-40h-88v40h88m0 48v-40h-88v40h88m0 41v-33h-88v33c7-2 14-3 22-3h44c8 0 15 1 22 3m49 83c5-32-17-64-47-74-7-3-15-5-24-5h-44c-41 0-77 39-72 79h187m10-355v-351c0-5-4-9-9-9h-386c-5 0-9 4-9 9v205h1v125h-1v21c0 5 4 9 9 9h386c5 0 9-4 9-9m49-241v-73h-41v72h35c2 0 4 0 6 1m74 277v-49h-25v49h25m28-291v-37c0-12-9-22-22-22h-72v75h-1c5 3 8 6 11 10l84-26m0 92v-84l-81 25c2 3 2 6 2 10v49h79m0 65v-57h-79v57h79m0 78v-70h-79v70h79m17 181c7-5 27-23 27-43 0-41-33-74-74-74h-21c-41 0-74 33-74 74 0 21 21 39 28 43v-29c0-32 26-57 57-57s57 25 57 57v29m57 531c0-67-54-121-121-121h-2465c-67 0-121 54-121 121s54 121 121 121h2465c67 0 121-54 121-121m-121-129c71 0 129 58 129 129s-58 129-129 129h-2465c-71 0-129-58-129-129s58-129 129-129h217c-11-5-18-16-18-29v-192c0-17 14-32 31-32 0-9-1-28 1-36-12-9-6-28 9-28h43c16 0 22 20 9 29 2 8 1 26 1 34h3c17 0 32 15 32 33v192c0 13-7 24-18 29h77c-11-5-18-16-18-29v-192c0-17 13-32 31-32 0-9-1-28 1-36-12-9-6-28 9-28h43c16 0 22 20 9 29 1 8 0 26 0 34h3c18 0 33 15 33 33v192c0 13-8 24-18 29h78c-11-5-19-16-19-29v-192c0-17 14-32 31-32 0-9-1-28 1-36-12-9-6-28 10-28h42c16 0 22 20 9 29 2 7 1 27 1 34h3c18 0 33 15 33 33v192c0 13-8 24-19 29h108v-52h54l74-11-77-11c-20-5-17-33 4-35l73-10-75-11c-20-5-19-32 0-35l75-11c-9-2-65-11-69-10-16 3-26-15-17-28 3-6 10-9 17-8l69-10-75-11c-20-5-19-32 0-35l76-11-76-11c-20-3-21-32 0-35l74-11-52-8c-15 18-44 24-78 24-46 0-84-38-84-84v-4c-6-4-11-11-11-19v-30l-2 6-44-18 7-19-13-11v95c0 46-37 84-83 84h-14c-46 0-83-38-83-84v-326c0-12-10-22-21-22-12 0-22 10-22 22v315c0 46-37 83-83 83h-10c-46 0-83-37-83-83v-333c0-12-10-22-23-22h-5c-13 0-23 10-23 22v367c0 46-37 83-82 83s-82-37-82-83v-180h-50v404h25l41 58-201-2 40-56h33v-404h-58v74c0 11-10 21-21 21h-31v183c0 11-9 21-20 21h-44v413h31v54h33v62h-310v-62h25v-54h24v-413h-43c-11 0-20-10-20-21v-183h-37c-12 0-21-10-21-21v-189c0-11 9-21 21-21h37v-41c0-11 9-21 20-21h71v-71c0-12 9-21 21-21h16v-151h-15c-18 0-29-19-21-34-119-53-131-218-20-288v-27c0-21 17-39 38-40-11-14-1-33 18-33v-150c-8 0-23 2-23-11l1-142c-40 0-34 5-34-43 0-6 4-10 10-10h23v-152h-20l-19-145h186l-19 145h-21v152c39 0 34-5 34 43 0 5-5 10-10 10h-24v142c0 13-14 11-22 11v150c19 0 29 19 18 33 21 1 38 19 38 40v27c68 43 91 123 67 194-14 40-45 74-84 93 10 15-1 35-19 35h-20v151h21c11 0 21 9 21 21v71h72c11 0 20 10 20 21v41h31c11 0 21 10 21 21v41h58v-113c0-46 38-84 84-84l15 1v-487c0-11 9-20 20-20h115l-10-4 22-54 29 12c9-13 20-23 32-32l-13-30 53-23 14 31c14-2 29-3 43 0l13-32 54 22-13 31c13 8 23 18 32 30l31-13 22 53-19 9h109v-29c0-12 9-21 20-21h34c4 0 9 1 12 4v-91c0-30 24-55 52-55h36v-214c-23-6-40-27-40-52 0-30 25-54 54-54s53 23 54 52l32 21 40-71 34 86 23-28 37 13 39-81 28 114 28-47 30 19 30-149 18 136 15-13c2-29 25-52 54-52 30 0 54 24 54 54 0 26-18 47-42 53v213h20c29 0 52 25 52 55v124h156c6 0 11-5 11-11v-187h-20l-8-34h-12l-19-144h185l-19 144h-9l-8 34h-12v179h147c12 0 21 10 21 21v508c0 12-9 21-21 21h-167c-11 0-20-9-20-21v-437h-205v77h73c10 0 20 9 20 20v110c52 21 36 93-16 93-47 0-69-63-21-91v-91h-56v28c0 30-23 55-52 55h-39v13c0 12-9 21-21 21h-22v10c0 10-8 18-18 18h-18v64c11 1 20 10 20 21v28h260c16 0 28 12 28 27v191h60c0-14 18-21 27-9 5-8 17-8 23 0 6-8 17-8 23 0 6-8 18-8 23 0 6-8 18-8 24 0 6-8 17-8 23 0 6-8 17-8 23 0 6-8 18-8 24 0 5-8 17-8 23 0 6-8 17-8 23 0 6-8 18-8 23 0 6-8 18-8 24 0 5-8 17-8 23 0 6-8 17-8 23 0 6-8 18-8 23 0 6-8 18-8 24 0 6-8 17-8 23 0 6-8 17-8 23 0 6-8 18-8 24 0 5-8 17-8 23 0 6-8 17-8 23 0 6-8 17-8 23 0 2-3 5-5 8-5v-90h-122c-16 0-30-13-30-30v-279h29v-50c-41-4-73-38-73-80 0-27 27-50 37-51 2-24 18-43 40-49v-170c-24-6-41-28-41-53 0-1 1-1 1-1-19 13-46 0-46-23v-26c0-6 2-11 5-16 1-3 3-7 5-9l66-70v-31h-20v-28h90v28h-20v31l66 69c3 3 4 7 5 10 4 5 5 10 5 16v26c0 24-28 36-46 22v2c0 25-17 47-41 53v170c22 6 39 25 41 48 9 0 38 24 38 52 0 42-32 76-73 80v50h26v200c0 12 10 22 23 22h35v-29c0-9 7-17 16-17h49v-22h-15v-257c0-77 56-141 132-151 0-15-3-32 14-39v-30c-28-10-22-52 9-52 30 0 37 42 8 52v30c18 7 15 24 15 40 74 12 127 75 127 150v257h-17v22h64c9 0 17 8 17 17v29h121c17 0 30 14 30 30v279h-29v50c41 5 73 39 73 81 0 23-26 51-38 51-3 0-5-2-5-5v-32c0-28-22-49-49-49s-49 21-49 49v32c0 3-2 5-5 5-10 0-39-24-39-51 0-42 32-76 73-81v-50h-26v-199c0-13-10-23-22-23h-35v235c0 9-8 17-17 17h-43v258c33 13 55 48 50 83l-1 5h-200c-3-16-2-27 3-42 8-21 25-38 45-46l1-258h-104v258c33 13 54 48 49 83v5h-201c-2-16-2-27 4-42 8-21 24-38 45-46l1-258h-35c-9 0-16-8-16-17v-22c-3-1-6-3-8-5-6 7-17 7-23 0-6 7-17 7-23 0-6 7-18 7-23 0-6 7-18 7-24 0-6 7-17 7-23 0-6 7-17 7-23 0-6 7-18 7-24 0-5 7-17 7-23 0-1 1-2 2-4 3l4 9-21 9c3 10 3 21 2 31l20 8-16 40-19-8c-6 9-13 17-22 24l8 18-40 16-7-17c-11 3-22 3-33 1l-7 17-40-16 7-17c-9-6-17-14-23-23l-18 7-17-39 19-8c-2-11-2-21 0-32l-19-7 4-11c-4 0-8-2-11-5-5 7-17 7-23 0-6 7-17 7-23 0-6 7-17 7-23 0-8 10-27 7-27-12h-60v26c0 15-12 28-28 28h-180c0 14 1 110 0 116-2 9-10 16-20 16h-78v52h-47c19 6 15 33-5 35l-74 11 76 11c19 2 21 32 0 35l-74 11 75 11c21 3 20 34-2 35l-69 11 71 10c21 3 20 33-2 35l-73 11 75 11c21 3 20 33-2 35l-73 11 74 10c13 2 19 19 11 29h39v52h118c-11-5-19-16-19-29v-192c0-17 14-32 31-32 0-9-1-28 1-36-12-9-6-28 10-28h42c16 0 22 20 9 29 2 8 1 26 1 34h3c18 0 33 15 33 33v192c0 13-8 24-19 29h88c-11-5-19-16-19-29v-192c0-17 14-32 31-32 0-9-1-28 1-36-12-9-6-28 10-28h42c16 0 22 20 9 29 2 8 1 26 1 34h3c18 0 32 15 32 33v14 163c0 17 2 34-18 44h77c-10-5-18-16-18-29v-192c0-17 14-32 31-32 0-9-1-28 1-36-12-9-6-28 10-28h42c16 0 22 20 9 29 2 8 1 26 1 34h3c18 0 32 15 32 33v14 163c0 17 2 34-18 44h78c-11-5-18-16-18-29v-192c0-17 13-32 31-32 0-9-1-28 0-36-11-9-5-28 10-28h43c16 0 22 20 9 29 1 8 0 26 0 34h3c18 0 33 15 33 33v192c0 13-8 24-18 29h78c-14-4-23-16-23-31v-64c0-18 15-32 33-32h192c17 0 31 13 32 31 9 0 28-2 35 0 9-11 29-5 29 10v43c0 16-21 22-29 9-7 1-27 0-35 0 0 16-7 29-22 34h383" fill="#c8deef"/></svg>